<svg width="114" height="16" viewBox="0 0 114 16" fill="none" xmlns="http://www.w3.org/2000/svg">
<path d="M0.66 0.999999H3.9V12.36H10.92V15H0.66V0.999999ZM19.0759 15.24C17.6226 15.24 16.3093 14.9267 15.1359 14.3C13.9759 13.6733 13.0626 12.8133 12.3959 11.72C11.7426 10.6133 11.4159 9.37333 11.4159 8C11.4159 6.62667 11.7426 5.39333 12.3959 4.3C13.0626 3.19333 13.9759 2.32667 15.1359 1.7C16.3093 1.07333 17.6226 0.76 19.0759 0.76C20.5293 0.76 21.8359 1.07333 22.9959 1.7C24.1559 2.32667 25.0693 3.19333 25.7359 4.3C26.4026 5.39333 26.7359 6.62667 26.7359 8C26.7359 9.37333 26.4026 10.6133 25.7359 11.72C25.0693 12.8133 24.1559 13.6733 22.9959 14.3C21.8359 14.9267 20.5293 15.24 19.0759 15.24ZM19.0759 12.48C19.9026 12.48 20.6493 12.2933 21.3159 11.92C21.9826 11.5333 22.5026 11 22.8759 10.32C23.2626 9.64 23.4559 8.86667 23.4559 8C23.4559 7.13333 23.2626 6.36 22.8759 5.68C22.5026 5 21.9826 4.47333 21.3159 4.1C20.6493 3.71333 19.9026 3.52 19.0759 3.52C18.2493 3.52 17.5026 3.71333 16.8359 4.1C16.1693 4.47333 15.6426 5 15.2559 5.68C14.8826 6.36 14.6959 7.13333 14.6959 8C14.6959 8.86667 14.8826 9.64 15.2559 10.32C15.6426 11 16.1693 11.5333 16.8359 11.92C17.5026 12.2933 18.2493 12.48 19.0759 12.48ZM38.4309 7.78H41.3909V13.46C40.6309 14.0333 39.7509 14.4733 38.7509 14.78C37.7509 15.0867 36.7443 15.24 35.7309 15.24C34.2776 15.24 32.9709 14.9333 31.8109 14.32C30.6509 13.6933 29.7376 12.8333 29.0709 11.74C28.4176 10.6333 28.0909 9.38667 28.0909 8C28.0909 6.61333 28.4176 5.37333 29.0709 4.28C29.7376 3.17333 30.6576 2.31333 31.8309 1.7C33.0043 1.07333 34.3243 0.76 35.7909 0.76C37.0176 0.76 38.1309 0.966666 39.1309 1.38C40.1309 1.79333 40.9709 2.39333 41.6509 3.18L39.5709 5.1C38.5709 4.04667 37.3643 3.52 35.9509 3.52C35.0576 3.52 34.2643 3.70667 33.5709 4.08C32.8776 4.45333 32.3376 4.98 31.9509 5.66C31.5643 6.34 31.3709 7.12 31.3709 8C31.3709 8.86667 31.5643 9.64 31.9509 10.32C32.3376 11 32.8709 11.5333 33.5509 11.92C34.2443 12.2933 35.0309 12.48 35.9109 12.48C36.8443 12.48 37.6843 12.28 38.4309 11.88V7.78ZM51.1806 15.24C49.7273 15.24 48.414 14.9267 47.2406 14.3C46.0806 13.6733 45.1673 12.8133 44.5006 11.72C43.8473 10.6133 43.5206 9.37333 43.5206 8C43.5206 6.62667 43.8473 5.39333 44.5006 4.3C45.1673 3.19333 46.0806 2.32667 47.2406 1.7C48.414 1.07333 49.7273 0.76 51.1806 0.76C52.634 0.76 53.9406 1.07333 55.1006 1.7C56.2606 2.32667 57.174 3.19333 57.8406 4.3C58.5073 5.39333 58.8406 6.62667 58.8406 8C58.8406 9.37333 58.5073 10.6133 57.8406 11.72C57.174 12.8133 56.2606 13.6733 55.1006 14.3C53.9406 14.9267 52.634 15.24 51.1806 15.24ZM51.1806 12.48C52.0073 12.48 52.754 12.2933 53.4206 11.92C54.0873 11.5333 54.6073 11 54.9806 10.32C55.3673 9.64 55.5606 8.86667 55.5606 8C55.5606 7.13333 55.3673 6.36 54.9806 5.68C54.6073 5 54.0873 4.47333 53.4206 4.1C52.754 3.71333 52.0073 3.52 51.1806 3.52C50.354 3.52 49.6073 3.71333 48.9406 4.1C48.274 4.47333 47.7473 5 47.3606 5.68C46.9873 6.36 46.8006 7.13333 46.8006 8C46.8006 8.86667 46.9873 9.64 47.3606 10.32C47.7473 11 48.274 11.5333 48.9406 11.92C49.6073 12.2933 50.354 12.48 51.1806 12.48ZM63.9756 3.64H59.4956V0.999999H71.6956V3.64H67.2156V15H63.9756V3.64ZM81.3589 10.04V15H78.1189V10L72.6989 0.999999H76.1389L79.8789 7.22L83.6189 0.999999H86.7989L81.3589 10.04ZM94.2145 0.999999C95.4545 0.999999 96.5279 1.20667 97.4345 1.62C98.3545 2.03333 99.0612 2.62 99.5545 3.38C100.048 4.14 100.295 5.04 100.295 6.08C100.295 7.10667 100.048 8.00667 99.5545 8.78C99.0612 9.54 98.3545 10.1267 97.4345 10.54C96.5279 10.94 95.4545 11.14 94.2145 11.14H91.3945V15H88.1545V0.999999H94.2145ZM94.0345 8.5C95.0079 8.5 95.7479 8.29333 96.2545 7.88C96.7612 7.45333 97.0145 6.85333 97.0145 6.08C97.0145 5.29333 96.7612 4.69333 96.2545 4.28C95.7479 3.85333 95.0079 3.64 94.0345 3.64H91.3945V8.5H94.0345ZM113.043 12.4V15H102.203V0.999999H112.783V3.6H105.423V6.64H111.923V9.16H105.423V12.4H113.043Z" fill="black"/>
</svg>
